<svg width="58" height="59" viewBox="0 0 58 59" fill="none" xmlns="http://www.w3.org/2000/svg">
<g filter="url(#filter0_d_204_46)">
<circle cx="29" cy="25.4106" r="25" fill="#4A4D52"/>
<path d="M37.5285 26.9388C37.5735 26.6106 37.596 26.2716 37.596 25.9106C37.596 25.5606 37.5735 25.2106 37.5172 24.8825L39.7998 23.1544C40.0022 23.0013 40.0585 22.706 39.9348 22.4872L37.7759 18.856C37.6409 18.6153 37.3598 18.5388 37.1124 18.6153L34.425 19.6653C33.8628 19.2497 33.2669 18.8997 32.6034 18.6372L32.1986 15.8591C32.1537 15.5966 31.9288 15.4106 31.6589 15.4106H27.3411C27.0712 15.4106 26.8576 15.5966 26.8126 15.8591L26.4078 18.6372C25.7444 18.8997 25.1372 19.2606 24.5862 19.6653L21.8988 18.6153C21.6514 18.5278 21.3703 18.6153 21.2354 18.856L19.0877 22.4872C18.9528 22.7169 18.9978 23.0013 19.2226 23.1544L21.5052 24.8825C21.449 25.2106 21.404 25.5716 21.404 25.9106C21.404 26.2497 21.4265 26.6106 21.4828 26.9388L19.2002 28.6669C18.9978 28.82 18.9415 29.1153 19.0652 29.3341L21.2241 32.9653C21.3591 33.206 21.6402 33.2825 21.8876 33.206L24.575 32.156C25.1372 32.5716 25.7331 32.9216 26.3966 33.1841L26.8013 35.9622C26.8576 36.2247 27.0712 36.4106 27.3411 36.4106H31.6589C31.9288 36.4106 32.1537 36.2247 32.1874 35.9622L32.5922 33.1841C33.2556 32.9216 33.8628 32.5716 34.4138 32.156L37.1012 33.206C37.3486 33.2935 37.6297 33.206 37.7646 32.9653L39.9235 29.3341C40.0585 29.0935 40.0022 28.82 39.7886 28.6669L37.5285 26.9388ZM29.5 29.8481C27.2736 29.8481 25.452 28.0763 25.452 25.9106C25.452 23.745 27.2736 21.9731 29.5 21.9731C31.7264 21.9731 33.548 23.745 33.548 25.9106C33.548 28.0763 31.7264 29.8481 29.5 29.8481Z" fill="white"/>
</g>
<defs>
<filter id="filter0_d_204_46" x="0" y="0.410645" width="58" height="58" filterUnits="userSpaceOnUse" color-interpolation-filters="sRGB">
<feFlood flood-opacity="0" result="BackgroundImageFix"/>
<feColorMatrix in="SourceAlpha" type="matrix" values="0 0 0 0 0 0 0 0 0 0 0 0 0 0 0 0 0 0 127 0" result="hardAlpha"/>
<feOffset dy="4"/>
<feGaussianBlur stdDeviation="2"/>
<feComposite in2="hardAlpha" operator="out"/>
<feColorMatrix type="matrix" values="0 0 0 0 0 0 0 0 0 0 0 0 0 0 0 0 0 0 0.25 0"/>
<feBlend mode="normal" in2="BackgroundImageFix" result="effect1_dropShadow_204_46"/>
<feBlend mode="normal" in="SourceGraphic" in2="effect1_dropShadow_204_46" result="shape"/>
</filter>
</defs>
</svg>
