<svg width="50" height="50" viewBox="0 0 50 50" fill="none" xmlns="http://www.w3.org/2000/svg">
<circle cx="25" cy="25" r="25" fill="#4A4D52"/>
<path d="M17.6875 35.8907C17.2708 35.8907 16.9063 35.7345 16.5938 35.422C16.2813 35.1095 16.125 34.7449 16.125 34.3282V18.6251H17.6875V34.3282H30.0313V35.8907H17.6875ZM20.8125 32.7657C20.3958 32.7657 20.0313 32.6095 19.7188 32.297C19.4063 31.9845 19.25 31.6199 19.25 31.2032V16.6199C19.25 16.2032 19.4063 15.8386 19.7188 15.5261C20.0313 15.2136 20.3958 15.0574 20.8125 15.0574H32.2708C32.6875 15.0574 33.0521 15.2136 33.3646 15.5261C33.6771 15.8386 33.8333 16.2032 33.8333 16.6199V31.2032C33.8333 31.6199 33.6771 31.9845 33.3646 32.297C33.0521 32.6095 32.6875 32.7657 32.2708 32.7657H20.8125ZM20.8125 31.2032H32.2708V16.6199H20.8125V31.2032Z" fill="white"/>
</svg>
