<svg width="58" height="58" viewBox="0 0 58 58" fill="none" xmlns="http://www.w3.org/2000/svg">
<g filter="url(#filter0_d_202_80)">
<circle cx="29" cy="25" r="25" fill="#4A4D52"/>
</g>
<path d="M24.9766 32.7143H25.9531V25.6607H24.9766C24.4372 25.6607 24 25.2235 24 24.6841V22.3516C24 21.8122 24.4372 21.375 24.9766 21.375H30.4453C30.9847 21.375 31.4219 21.8122 31.4219 22.3516V32.7143H32.3984C32.9378 32.7143 33.375 33.1515 33.375 33.6909V36.0234C33.375 36.5628 32.9378 37 32.3984 37H24.9766C24.4372 37 24 36.5628 24 36.0234V33.6909C24 33.1515 24.4372 32.7143 24.9766 32.7143ZM28.6875 12C26.7458 12 25.1719 13.574 25.1719 15.5156C25.1719 17.4573 26.7458 19.0312 28.6875 19.0312C30.6292 19.0312 32.2031 17.4573 32.2031 15.5156C32.2031 13.574 30.6291 12 28.6875 12Z" fill="white" fill-opacity="0.7"/>
<defs>
<filter id="filter0_d_202_80" x="0" y="0" width="58" height="58" filterUnits="userSpaceOnUse" color-interpolation-filters="sRGB">
<feFlood flood-opacity="0" result="BackgroundImageFix"/>
<feColorMatrix in="SourceAlpha" type="matrix" values="0 0 0 0 0 0 0 0 0 0 0 0 0 0 0 0 0 0 127 0" result="hardAlpha"/>
<feOffset dy="4"/>
<feGaussianBlur stdDeviation="2"/>
<feComposite in2="hardAlpha" operator="out"/>
<feColorMatrix type="matrix" values="0 0 0 0 0 0 0 0 0 0 0 0 0 0 0 0 0 0 0.25 0"/>
<feBlend mode="normal" in2="BackgroundImageFix" result="effect1_dropShadow_202_80"/>
<feBlend mode="normal" in="SourceGraphic" in2="effect1_dropShadow_202_80" result="shape"/>
</filter>
</defs>
</svg>
