<svg width="207" height="47" viewBox="0 0 207 47" fill="none" xmlns="http://www.w3.org/2000/svg">
<path d="M0.68 29.424H2.38V14.158H0.68V8.548H14.484C18.2693 8.548 21.2727 9.59066 23.494 11.676C25.738 13.7387 26.86 17.1047 26.86 21.774C26.86 26.4433 25.738 29.8207 23.494 31.906C21.2727 33.9687 18.2693 35 14.484 35H0.68V29.424ZM13.872 29.424C14.6427 29.424 15.2207 29.22 15.606 28.812C15.9913 28.404 16.184 27.7693 16.184 26.908V16.64C16.184 14.9627 15.4133 14.124 13.872 14.124H11.9V29.424H13.872ZM47.7602 29.424V35H38.7842V32.688C38.2855 33.4133 37.5828 34.0593 36.6762 34.626C35.7922 35.1927 34.7042 35.476 33.4122 35.476C31.7122 35.476 30.3748 35.0227 29.4002 34.116C28.4255 33.2093 27.9382 31.9287 27.9382 30.274C27.9382 25.99 31.5762 23.7913 38.8522 23.678C38.7842 22.9073 38.4895 22.386 37.9682 22.114C37.4468 21.8193 36.5628 21.672 35.3162 21.672C34.2962 21.672 33.1968 21.7853 32.0182 22.012C30.8622 22.216 29.7968 22.4993 28.8222 22.862V16.606C30.0235 16.3113 31.3268 16.0733 32.7322 15.892C34.1375 15.7107 35.5088 15.62 36.8462 15.62C40.2235 15.62 42.6375 16.232 44.0882 17.456C45.5388 18.68 46.2642 20.5727 46.2642 23.134V29.424H47.7602ZM38.7842 27.044C37.7642 27.044 36.9708 27.18 36.4042 27.452C35.8602 27.724 35.5882 28.1773 35.5882 28.812C35.5882 29.1973 35.7015 29.5147 35.9282 29.764C36.1775 29.9907 36.5175 30.104 36.9482 30.104C37.5375 30.104 37.9908 29.8547 38.3082 29.356C38.6255 28.8573 38.7842 28.1547 38.7842 27.248V27.044ZM57.2541 35.476C54.8515 35.476 53.0381 34.898 51.8141 33.742C50.6128 32.5633 50.0121 30.5913 50.0121 27.826V21.672H48.5161V16.096C49.3775 16.096 50.0235 15.8807 50.4541 15.45C50.8848 14.9967 51.1001 14.3847 51.1001 13.614V12.084H58.3081V16.096H62.8981V21.672H58.3081V27.248C58.3081 27.996 58.4668 28.5513 58.7841 28.914C59.1241 29.254 59.6228 29.424 60.2801 29.424C61.1415 29.424 62.0821 29.322 63.1021 29.118V34.456C62.4675 34.7053 61.6061 34.932 60.5181 35.136C59.4528 35.3627 58.3648 35.476 57.2541 35.476ZM84.018 29.424V35H75.042V32.688C74.5433 33.4133 73.8407 34.0593 72.934 34.626C72.05 35.1927 70.962 35.476 69.67 35.476C67.97 35.476 66.6327 35.0227 65.658 34.116C64.6833 33.2093 64.196 31.9287 64.196 30.274C64.196 25.99 67.834 23.7913 75.11 23.678C75.042 22.9073 74.7473 22.386 74.226 22.114C73.7047 21.8193 72.8207 21.672 71.574 21.672C70.554 21.672 69.4547 21.7853 68.276 22.012C67.12 22.216 66.0547 22.4993 65.08 22.862V16.606C66.2813 16.3113 67.5847 16.0733 68.99 15.892C70.3953 15.7107 71.7667 15.62 73.104 15.62C76.4813 15.62 78.8953 16.232 80.346 17.456C81.7967 18.68 82.522 20.5727 82.522 23.134V29.424H84.018ZM75.042 27.044C74.022 27.044 73.2287 27.18 72.662 27.452C72.118 27.724 71.846 28.1773 71.846 28.812C71.846 29.1973 71.9593 29.5147 72.186 29.764C72.4353 29.9907 72.7753 30.104 73.206 30.104C73.7953 30.104 74.2487 29.8547 74.566 29.356C74.8833 28.8573 75.042 28.1547 75.042 27.248V27.044ZM110.818 26.5H109.118V33.3C108.121 33.8667 106.659 34.3767 104.732 34.83C102.828 35.2607 100.765 35.476 98.544 35.476C94.3053 35.476 90.9846 34.3653 88.582 32.144C86.1793 29.9 84.978 26.4433 84.978 21.774C84.978 16.9913 86.168 13.512 88.548 11.336C90.9506 9.16 94.3733 8.072 98.816 8.072C100.969 8.072 102.987 8.29867 104.868 8.752C106.749 9.20533 108.166 9.71533 109.118 10.282V18.408H100.618V16.81C100.618 15.858 100.414 15.178 100.006 14.77C99.6206 14.3393 98.9973 14.124 98.136 14.124C97.2746 14.124 96.64 14.3393 96.232 14.77C95.8466 15.178 95.654 15.858 95.654 16.81V26.738C95.654 27.69 95.8466 28.3813 96.232 28.812C96.64 29.22 97.2746 29.424 98.136 29.424C98.9973 29.424 99.6206 29.22 100.006 28.812C100.414 28.3813 100.618 27.69 100.618 26.738V26.5H98.782V21.434H110.818V26.5ZM121.842 35.476C118.623 35.476 116.107 34.6373 114.294 32.96C112.48 31.26 111.574 28.7893 111.574 25.548C111.574 22.3067 112.48 19.8473 114.294 18.17C116.107 16.47 118.623 15.62 121.842 15.62C125.038 15.62 127.338 16.4587 128.744 18.136C130.172 19.7907 130.886 21.8533 130.886 24.324V26.772H119.87V26.976C119.87 27.8147 120.119 28.438 120.618 28.846C121.116 29.2313 121.944 29.424 123.1 29.424C124.482 29.424 125.797 29.322 127.044 29.118C128.29 28.914 129.378 28.6533 130.308 28.336V33.776C129.514 34.2067 128.347 34.6033 126.806 34.966C125.287 35.306 123.632 35.476 121.842 35.476ZM123.814 23.032V22.624C123.814 21.8533 123.644 21.298 123.304 20.958C122.986 20.618 122.499 20.448 121.842 20.448C121.184 20.448 120.686 20.6293 120.346 20.992C120.028 21.332 119.87 21.876 119.87 22.624V23.032H123.814ZM154.473 29.424V35H143.729V29.424H145.157V23.848C145.157 23.1 144.998 22.556 144.681 22.216C144.364 21.8533 143.888 21.672 143.253 21.672C141.893 21.672 141.213 22.3973 141.213 23.848V29.424H142.641V35H131.897V29.424H133.393V21.672H131.897V16.096H141.213V18.748C142.845 16.6627 144.885 15.62 147.333 15.62C149.214 15.62 150.62 16.2093 151.549 17.388C152.501 18.5667 152.977 20.1873 152.977 22.25V29.424H154.473Z" fill="url(#paint0_linear_83_34)"/>
<path fill-rule="evenodd" clip-rule="evenodd" d="M206.605 6.97491C207.118 5.79646 207.102 5.01416 206.727 4.2902C206.352 3.56625 205.54 3.13265 204.361 3.02595C203.182 2.91925 201.67 3.1426 199.952 3.67714C198.343 4.17783 196.597 4.93778 194.845 5.89948C192.573 4.89801 190.061 4.34195 187.418 4.34195C177.527 4.34195 169.456 12.1334 169.008 21.9135C167.828 23.32 166.741 24.7782 165.812 26.2017C164.623 28.0226 163.733 29.7254 163.228 31.1461C162.722 32.5667 162.619 33.6573 162.927 34.3127C163.235 34.9682 164.3 35.1009 165.342 34.8229C165.342 34.8229 164.4 34.801 164.228 33.9115C163.658 30.9531 166.846 27.2885 169.133 25.0968C169.477 27.8305 170.42 30.3779 171.826 32.6034C169.698 33.832 165.837 35.8235 163.621 35.532C162.077 35.3289 162.277 33.6765 162.277 33.6765C161.797 34.8303 161.943 35.6526 162.698 36.0395C163.452 36.4264 164.78 36.3605 166.514 35.8501C168.247 35.3397 170.309 34.4077 172.438 33.172C173.24 32.7064 174.039 32.2056 174.819 31.6795C175.229 31.4635 175.63 31.2359 176.018 30.9986C177.239 30.2516 178.291 29.431 179.088 28.6062L175.429 28.7517L178.748 24.5337L181.663 24.4178C182.375 23.4261 183.234 22.4131 184.216 21.431C188.171 17.4763 192.627 15.5207 194.169 17.063C195.712 18.6053 193.756 23.0615 189.802 27.0162C188.836 27.9816 187.841 28.8278 186.866 29.5331L186.972 32.3902L183.022 36.0239L182.862 31.7347C182.054 32.3191 181.195 32.8907 180.292 33.4432C178.584 34.4887 176.754 35.444 174.875 36.2757C178.164 39.3331 182.573 41.2028 187.418 41.2028C197.597 41.2028 205.849 32.9512 205.849 22.7724C205.849 16.0892 202.292 10.2368 196.967 7.00535C198.614 5.97862 201.693 4.32691 204.026 4.64579C207.368 5.10265 206.605 6.97491 206.605 6.97491ZM187.52 26.013C188.582 26.013 189.444 25.1516 189.444 24.0889C189.444 23.0263 188.582 22.1649 187.52 22.1649C186.457 22.1649 185.596 23.0263 185.596 24.0889C185.596 25.1516 186.457 26.013 187.52 26.013Z" fill="url(#paint1_linear_83_34)"/>
<defs>
<linearGradient id="paint0_linear_83_34" x1="0" y1="0" x2="25.2455" y2="83.2563" gradientUnits="userSpaceOnUse">
<stop stop-color="#734FD7"/>
<stop offset="1" stop-color="#C95DDD"/>
</linearGradient>
<linearGradient id="paint1_linear_83_34" x1="162" y1="3" x2="198.458" y2="45.9444" gradientUnits="userSpaceOnUse">
<stop stop-color="#734FD7"/>
<stop offset="1" stop-color="#C95DDD"/>
</linearGradient>
</defs>
</svg>
