<svg width="14" height="8" viewBox="0 0 14 8" fill="none" xmlns="http://www.w3.org/2000/svg">
<path d="M14 0.637383V0.719414C13.9832 0.868164 13.9373 0.988021 13.8622 1.07898C13.8128 1.13878 13.6364 1.32016 13.3331 1.62312C11.4657 3.48815 9.5972 5.35208 7.72762 7.21492C7.60457 7.33715 7.47988 7.49191 7.3407 7.5723C6.98168 7.7793 6.68938 7.63902 6.42578 7.37598C4.44628 5.39975 2.46887 3.42143 0.493555 1.44102C0.272617 1.21953 0.0355469 1.04699 0 0.716133V0.640938C0.0470312 0.361758 0.176094 0.135625 0.445703 0.0410156C0.523359 0.0136719 0.652786 0 0.833984 0C4.99479 0 9.1556 0.00100262 13.3164 0.00300783C13.7017 0.00328127 13.9497 0.269609 14 0.637383Z" fill="#53A9C3"/>
</svg>
